<svg width="179" height="41" xmlns="http://www.w3.org/2000/svg" fill="none">
 <defs>
  <clipPath id="a">
   <path id="svg_1" d="m0,0l40,0l0,41l-40,0l0,-41z" fill="#fff"/>
  </clipPath>
 </defs>
 <g>
  <title>Layer 1</title>
  <g id="svg_2" clip-path="url(#a)">
   <path id="svg_3" clip-rule="evenodd" d="m13.715,0.516c-2.257,0 -4.42,0.896 -6.016,2.492l-7.699,7.699l0,3.524c0,2.49 1.07,4.73 2.774,6.285a8.485,8.485 0 0 0 -2.774,6.286l0,3.524l7.699,7.698a8.507,8.507 0 0 0 12.301,-0.282a8.508,8.508 0 0 0 12.301,0.282l7.699,-7.698l0,-3.524c0,-2.49 -1.07,-4.73 -2.774,-6.286a8.485,8.485 0 0 0 2.774,-6.285l0,-3.524l-7.699,-7.7a8.508,8.508 0 0 0 -12.301,0.283a8.485,8.485 0 0 0 -6.285,-2.774zm12.044,20a8.528,8.528 0 0 1 -0.282,-0.27l-5.477,-5.476l-5.477,5.477a8.528,8.528 0 0 1 -0.282,0.27c0.096,0.087 0.19,0.177 0.282,0.269l5.477,5.476l5.477,-5.476c0.092,-0.093 0.186,-0.182 0.282,-0.27zm-3.537,9.81l0,1.682a4.063,4.063 0 0 0 6.936,2.874l6.398,-6.397l0,-1.683a4.063,4.063 0 0 0 -6.937,-2.874l-6.397,6.398zm-4.444,0l-6.397,-6.398a4.063,4.063 0 0 0 -6.937,2.873l0,1.684l6.397,6.397a4.063,4.063 0 0 0 6.937,-2.873l0,-1.683zm0,-21.302l0,1.683l-6.397,6.397a4.063,4.063 0 0 1 -6.937,-2.873l0,-1.683l6.397,-6.397a4.063,4.063 0 0 1 6.937,2.873zm10.841,8.08l-6.397,-6.397l0,-1.683a4.063,4.063 0 0 1 6.936,-2.873l6.398,6.397l0,1.683a4.063,4.063 0 0 1 -6.937,2.873z" fill-rule="evenodd" fill="#C7231A"/>
  </g>
  <path id="svg_4" d="m54.318,29l0,-16.8l11.484,0l0,3.096l-7.932,0l0,3.6l6.72,0l0,2.868l-6.72,0l0,4.104l8.028,0l0,3.132l-11.58,0zm12.818,0.024l4.368,-6.036l-4.14,-6.108l4.428,0l2.148,3.684l2.088,-3.684l4.32,0l-4.02,6.036l4.332,6.084l-4.488,0l-2.352,-3.696l-2.388,3.66l-4.296,0.06zm20.293,0.336c-1.296,0 -2.32,-0.364 -3.072,-1.092c-0.744,-0.736 -1.116,-1.844 -1.116,-3.324l0,-11.556l3.504,0l0,3.492l3.012,0l0,2.808l-3.012,0l0,4.62c0,0.712 0.148,1.212 0.444,1.5c0.296,0.288 0.692,0.432 1.188,0.432c0.256,0 0.504,-0.028 0.744,-0.084c0.248,-0.064 0.476,-0.152 0.684,-0.264l0.492,2.76c-0.36,0.2 -0.792,0.368 -1.296,0.504a5.92,5.92 0 0 1 -1.572,0.204zm-6.648,-9.672l0,-2.808l2.808,0l0,2.808l-2.809,0l0.001,0zm17.126,9.672c-1.32,0 -2.48,-0.268 -3.48,-0.804a5.853,5.853 0 0 1 -2.34,-2.244c-0.56,-0.96 -0.84,-2.084 -0.84,-3.372c0,-0.936 0.16,-1.796 0.48,-2.58a6.052,6.052 0 0 1 1.368,-2.028a6.203,6.203 0 0 1 2.076,-1.332c0.8,-0.32 1.676,-0.48 2.628,-0.48c1.048,0 1.976,0.184 2.784,0.552a5.43,5.43 0 0 1 2.028,1.548c0.536,0.656 0.908,1.428 1.116,2.316c0.216,0.888 0.236,1.852 0.06,2.892l-9.288,0c0,0.56 0.144,1.048 0.432,1.464c0.296,0.416 0.708,0.744 1.236,0.984c0.536,0.232 1.16,0.348 1.872,0.348c0.704,0 1.376,-0.096 2.016,-0.288a6.426,6.426 0 0 0 1.812,-0.876l1.164,2.4c-0.384,0.296 -0.864,0.56 -1.44,0.792c-0.576,0.224 -1.188,0.396 -1.836,0.516a9.422,9.422 0 0 1 -1.848,0.192zm-3.204,-7.944l5.724,0c-0.024,-0.712 -0.276,-1.276 -0.756,-1.692c-0.472,-0.416 -1.124,-0.624 -1.956,-0.624c-0.832,0 -1.524,0.208 -2.076,0.624c-0.544,0.416 -0.856,0.98 -0.936,1.692zm11.127,7.584l0,-12.12l3.504,0l0,1.368c0.464,-0.608 1.012,-1.048 1.644,-1.32a5.072,5.072 0 0 1 2.004,-0.408c1.128,0 2.056,0.224 2.784,0.672c0.736,0.44 1.28,1.012 1.632,1.716c0.36,0.704 0.54,1.444 0.54,2.22l0,7.872l-3.504,0l0,-6.78c0,-0.768 -0.216,-1.38 -0.648,-1.836c-0.424,-0.456 -1.04,-0.684 -1.848,-0.684c-0.512,0 -0.964,0.116 -1.356,0.348c-0.392,0.224 -0.7,0.54 -0.924,0.948c-0.216,0.408 -0.324,0.88 -0.324,1.416l0,6.588l-3.504,0zm19.29,0.348c-1.08,0 -2.076,-0.14 -2.988,-0.42c-0.912,-0.288 -1.692,-0.68 -2.34,-1.176l1.14,-2.448a8.333,8.333 0 0 0 2.052,1.02c0.736,0.24 1.444,0.36 2.124,0.36c0.672,0 1.188,-0.1 1.548,-0.3c0.368,-0.208 0.552,-0.504 0.552,-0.888c0,-0.344 -0.164,-0.596 -0.492,-0.756c-0.32,-0.168 -0.944,-0.348 -1.872,-0.54c-1.6,-0.288 -2.768,-0.74 -3.504,-1.356c-0.736,-0.624 -1.104,-1.48 -1.104,-2.568c0,-0.768 0.212,-1.444 0.636,-2.028c0.432,-0.584 1.024,-1.036 1.776,-1.356c0.752,-0.328 1.616,-0.492 2.592,-0.492c0.96,0 1.864,0.132 2.712,0.396c0.856,0.256 1.588,0.616 2.196,1.08l-1.104,2.46a5.34,5.34 0 0 0 -1.104,-0.672a6.35,6.35 0 0 0 -1.296,-0.444a5.43,5.43 0 0 0 -1.32,-0.168c-0.584,0 -1.056,0.1 -1.416,0.3c-0.36,0.192 -0.54,0.464 -0.54,0.816c0,0.352 0.164,0.612 0.492,0.78c0.328,0.168 0.94,0.352 1.836,0.552c1.672,0.352 2.86,0.82 3.564,1.404c0.712,0.576 1.068,1.388 1.068,2.436c0,0.808 -0.22,1.512 -0.66,2.112c-0.432,0.6 -1.04,1.068 -1.824,1.404c-0.776,0.328 -1.684,0.492 -2.724,0.492zm7.413,-0.348l0,-12.12l3.504,0l0,12.12l-3.504,0zm1.752,-14.04a2.26,2.26 0 0 1 -1.512,-0.54c-0.424,-0.368 -0.636,-0.856 -0.636,-1.464c0,-0.616 0.212,-1.104 0.636,-1.464a2.23,2.23 0 0 1 1.512,-0.552a2.23,2.23 0 0 1 1.512,0.552c0.424,0.36 0.636,0.848 0.636,1.464c0,0.608 -0.212,1.096 -0.636,1.464a2.26,2.26 0 0 1 -1.512,0.54zm10.362,14.4c-1.304,0 -2.46,-0.292 -3.468,-0.876a6.504,6.504 0 0 1 -2.376,-2.328a6.28,6.28 0 0 1 -0.852,-3.216c0,-0.856 0.164,-1.668 0.492,-2.436a6.302,6.302 0 0 1 1.392,-2.052c0.6,-0.6 1.308,-1.072 2.124,-1.416c0.816,-0.344 1.712,-0.516 2.688,-0.516c1.304,0 2.456,0.292 3.456,0.876a6.38,6.38 0 0 1 2.364,2.34c0.576,0.968 0.864,2.036 0.864,3.204c0,0.848 -0.164,1.66 -0.492,2.436a6.439,6.439 0 0 1 -1.392,2.064a6.547,6.547 0 0 1 -2.112,1.404c-0.816,0.344 -1.712,0.516 -2.688,0.516zm0,-3.036c0.616,0 1.168,-0.136 1.656,-0.408c0.488,-0.28 0.872,-0.672 1.152,-1.176c0.28,-0.512 0.42,-1.112 0.42,-1.8c0,-0.696 -0.14,-1.296 -0.42,-1.8a2.854,2.854 0 0 0 -1.14,-1.164c-0.488,-0.28 -1.044,-0.42 -1.668,-0.42c-0.624,0 -1.184,0.14 -1.68,0.42c-0.488,0.272 -0.872,0.66 -1.152,1.164c-0.272,0.504 -0.408,1.104 -0.408,1.8s0.14,1.296 0.42,1.8c0.28,0.504 0.664,0.896 1.152,1.176c0.488,0.272 1.044,0.408 1.668,0.408zm8.588,2.676l0,-12.12l3.504,0l0,1.368c0.464,-0.608 1.012,-1.048 1.644,-1.32a5.072,5.072 0 0 1 2.004,-0.408c1.128,0 2.056,0.224 2.784,0.672c0.736,0.44 1.28,1.012 1.632,1.716c0.36,0.704 0.54,1.444 0.54,2.22l0,7.872l-3.504,0l0,-6.78c0,-0.768 -0.216,-1.38 -0.648,-1.836c-0.424,-0.456 -1.04,-0.684 -1.848,-0.684c-0.512,0 -0.964,0.116 -1.356,0.348c-0.392,0.224 -0.7,0.54 -0.924,0.948c-0.216,0.408 -0.324,0.88 -0.324,1.416l0,6.588l-3.504,0zm19.291,0.348c-1.08,0 -2.076,-0.14 -2.988,-0.42c-0.912,-0.288 -1.692,-0.68 -2.34,-1.176l1.14,-2.448a8.333,8.333 0 0 0 2.052,1.02c0.736,0.24 1.444,0.36 2.124,0.36c0.672,0 1.188,-0.1 1.548,-0.3c0.368,-0.208 0.552,-0.504 0.552,-0.888c0,-0.344 -0.164,-0.596 -0.492,-0.756c-0.32,-0.168 -0.944,-0.348 -1.872,-0.54c-1.6,-0.288 -2.768,-0.74 -3.504,-1.356c-0.736,-0.624 -1.104,-1.48 -1.104,-2.568c0,-0.768 0.212,-1.444 0.636,-2.028c0.432,-0.584 1.024,-1.036 1.776,-1.356c0.752,-0.328 1.616,-0.492 2.592,-0.492c0.96,0 1.864,0.132 2.712,0.396c0.856,0.256 1.588,0.616 2.196,1.08l-1.104,2.46a5.34,5.34 0 0 0 -1.104,-0.672a6.35,6.35 0 0 0 -1.296,-0.444a5.43,5.43 0 0 0 -1.32,-0.168c-0.584,0 -1.056,0.1 -1.416,0.3c-0.36,0.192 -0.54,0.464 -0.54,0.816c0,0.352 0.164,0.612 0.492,0.78c0.328,0.168 0.94,0.352 1.836,0.552c1.672,0.352 2.86,0.82 3.564,1.404c0.712,0.576 1.068,1.388 1.068,2.436c0,0.808 -0.22,1.512 -0.66,2.112c-0.432,0.6 -1.04,1.068 -1.824,1.404c-0.776,0.328 -1.684,0.492 -2.724,0.492z" fill="#ffffff"/>
 </g>
</svg>